<svg version="1.1" xmlns="http://www.w3.org/2000/svg" xmlns:xlink="http://www.w3.org/1999/xlink" width="36" height="36" viewBox="0,0,36,36"><g transform="translate(-228,-168)"><g data-paper-data="{&quot;isPaintingLayer&quot;:true}" fill-rule="nonzero" stroke="none" stroke-width="1" stroke-linecap="butt" stroke-linejoin="miter" stroke-miterlimit="10" stroke-dasharray="" stroke-dashoffset="0" style="mix-blend-mode: normal"><path d="M228,168h36v36h-36z" fill="none"/><path d="M259.55561,203.42864h-27.11121c-2.13017,0 -3.87303,-1.74286 -3.87303,-3.87303v-27.11121c0,-2.13017 1.74286,-3.87303 3.87303,-3.87303h27.11121c2.13016,0 3.87303,1.74286 3.87303,3.87303v27.11121c0,2.13017 -1.74286,3.87303 -3.87303,3.87303zM238.48632,189.87303l-4.82192,6.19685c-0.50349,0.63905 -0.0581,1.56857 0.75524,1.56857h23.21882c0.79397,0 1.25873,-0.91016 0.7746,-1.54921l-6.79716,-9.06289c-0.3873,-0.52286 -1.16191,-0.52286 -1.54922,-0.01936l-6.0032,7.7267l-4.06668,-4.89938c-0.40667,-0.48413 -1.14254,-0.46476 -1.51048,0.03873z" fill="#4d515d"/></g></g></svg>