<svg version="1.1" xmlns="http://www.w3.org/2000/svg" xmlns:xlink="http://www.w3.org/1999/xlink" width="24" height="24" viewBox="0,0,24,24"><g transform="translate(-228,-168)"><g data-paper-data="{&quot;isPaintingLayer&quot;:true}" fill-rule="nonzero" stroke-linecap="butt" stroke-linejoin="miter" stroke-miterlimit="10" stroke-dasharray="" stroke-dashoffset="0" style="mix-blend-mode: normal"><path d="M228,168h24v24h-24z" fill="none" stroke="none" stroke-width="1"/><g fill="#6bb377" stroke="#45734c" stroke-width="0.5"><path d="M250.30446,181.66245c0,4.68853 -3.12998,8.62998 -7.40633,9.8794c-0.81148,0.24473 -1.61007,-0.41218 -1.61007,-1.24942v0c0,-0.55386 0.34778,-1.06909 0.88876,-1.22365c3.19438,-0.94028 5.55153,-3.90281 5.55153,-7.40633c0,-4.26347 -3.46487,-7.72834 -7.72834,-7.72834v2.30562c0,0.57963 -0.69555,0.863 -1.10773,0.4637l-3.59368,-3.59368c-0.25761,-0.25761 -0.25761,-0.65691 0,-0.91452l3.60656,-3.59368c0.3993,-0.41218 1.09485,-0.12881 1.09485,0.45082v2.30562c5.69321,0 10.30446,4.61124 10.30446,10.30446z"/><path d="M237.82318,189.06878c0.54098,0.15457 0.88876,0.66979 0.88876,1.22365v0c0,0.83724 -0.7986,1.49415 -1.61007,1.24942c-4.27635,-1.24942 -7.40633,-5.19087 -7.40633,-9.8794c0,-2.3185 0.77283,-4.45668 2.06089,-6.18267c0.4637,-0.61827 1.3911,-0.66979 1.93209,-0.12881v0c0.45082,0.4637 0.50234,1.17213 0.11593,1.68735c-0.96604,1.30094 -1.53279,2.89813 -1.53279,4.62413c0,3.50352 2.35714,6.46605 5.55153,7.40633z"/></g></g></g></svg>